<?xml version="1.0" encoding="UTF-8" standalone="no"?>
<!-- Created with Inkscape (http://www.inkscape.org/) -->

<svg
   xmlns:dc="http://purl.org/dc/elements/1.1/"
   xmlns:cc="http://creativecommons.org/ns#"
   xmlns:rdf="http://www.w3.org/1999/02/22-rdf-syntax-ns#"
   xmlns:svg="http://www.w3.org/2000/svg"
   xmlns="http://www.w3.org/2000/svg"
   xmlns:sodipodi="http://sodipodi.sourceforge.net/DTD/sodipodi-0.dtd"
   xmlns:inkscape="http://www.inkscape.org/namespaces/inkscape"
   width="378.16614"
   height="215.7874"
   viewBox="0 0 378.16615 215.78739"
   id="svg2"
   version="1.1"
   inkscape:version="0.91 r13725"
   sodipodi:docname="Illustration_for_the_intermediate_value_theorem.svg">
  <sodipodi:namedview
     id="base"
     pagecolor="#ffffff"
     bordercolor="#666666"
     borderopacity="1.0"
     inkscape:pageopacity="0.0"
     inkscape:pageshadow="2"
     inkscape:zoom="1"
     inkscape:cx="122.80147"
     inkscape:cy="128.94695"
     inkscape:document-units="px"
     inkscape:current-layer="layer1"
     showgrid="false"
     fit-margin-top="5"
     fit-margin-right="5"
     fit-margin-bottom="5"
     fit-margin-left="5"
     inkscape:window-width="1920"
     inkscape:window-height="1030"
     inkscape:window-x="0"
     inkscape:window-y="0"
     inkscape:window-maximized="1"
     units="cm" />
  <defs
     id="defs4">
    <marker
       inkscape:stockid="Arrow1Mend"
       orient="auto"
       refY="0"
       refX="0"
       id="marker4501"
       style="overflow:visible"
       inkscape:isstock="true">
      <path
         inkscape:connector-curvature="0"
         id="path4503"
         d="M 0,0 5,-5 -12.5,0 5,5 0,0 z"
         style="fill:#000080;fill-opacity:1;fill-rule:evenodd;stroke:#000080;stroke-width:1pt;stroke-opacity:1"
         transform="matrix(-0.4,0,0,-0.4,-4,0)" />
    </marker>
    <marker
       inkscape:stockid="Arrow1Mend"
       orient="auto"
       refY="0"
       refX="0"
       id="marker4479"
       style="overflow:visible"
       inkscape:isstock="true">
      <path
         inkscape:connector-curvature="0"
         id="path4481"
         d="M 0,0 5,-5 -12.5,0 5,5 0,0 z"
         style="fill:#000080;fill-opacity:1;fill-rule:evenodd;stroke:#000080;stroke-width:1pt;stroke-opacity:1"
         transform="matrix(-0.4,0,0,-0.4,-4,0)" />
    </marker>
    <marker
       inkscape:isstock="true"
       style="overflow:visible"
       id="Arrow1Mend"
       refX="0"
       refY="0"
       orient="auto"
       inkscape:stockid="Arrow1Mend"
       inkscape:collect="always">
      <path
         inkscape:connector-curvature="0"
         transform="matrix(-0.4,0,0,-0.4,-4,0)"
         style="fill:#000080;fill-opacity:1;fill-rule:evenodd;stroke:#000080;stroke-width:1pt;stroke-opacity:1"
         d="M 0,0 5,-5 -12.5,0 5,5 0,0 z"
         id="path4212" />
    </marker>
  </defs>
  <metadata
     id="metadata7">
    <rdf:RDF>
      <cc:Work
         rdf:about="">
        <dc:format>image/svg+xml</dc:format>
        <dc:type
           rdf:resource="http://purl.org/dc/dcmitype/StillImage" />
        <dc:title></dc:title>
      </cc:Work>
    </rdf:RDF>
  </metadata>
  <g
     transform="translate(-103.44151,-330.41616)"
     id="layer1"
     inkscape:groupmode="layer"
     inkscape:label="Basis">
    <path
       inkscape:connector-curvature="0"
       id="path3340"
       d="m 122.79384,459.97346 338.709,0"
       style="fill:none;stroke:#008000;stroke-width:0.98410499px;stroke-linecap:butt;stroke-linejoin:miter;stroke-opacity:1" />
    <circle
       sodipodi:ry="2.5"
       sodipodi:rx="2.5"
       sodipodi:cy="525.98706"
       sodipodi:cx="123.65804"
       r="2.5"
       cy="525.98706"
       cx="123.65804"
       id="path3346"
       style="fill:#000000;fill-opacity:1;stroke:none" />
    <circle
       sodipodi:ry="2.5"
       sodipodi:rx="2.5"
       sodipodi:cy="387.51703"
       sodipodi:cx="461.39111"
       r="2.5"
       cy="387.51703"
       cx="461.39111"
       id="path3346-0"
       style="fill:#000000;fill-opacity:1;stroke:none" />
    <path
       id="path29050-2"
       d="m 139.75199,445.76044 -0.071,0.004 -0.0355,0.004 -0.0355,0.007 -0.0355,0.0107 -0.0355,0.0106 -0.071,0.0106 -0.0355,0.0142 -0.0355,0.0178 -0.0355,0.0177 -0.0355,0.0178 -0.0355,0.0213 -0.0355,0.0213 -0.0355,0.0249 -0.0355,0.0249 -0.0355,0.0249 0,0.0284 -0.0355,0.0284 -0.0355,0.0284 -0.0355,0.032 0,0.0284 -0.0355,0.032 0,0.0355 -0.0355,0.032 0,0.0355 -0.0355,0.032 0,0.0355 0,0.0355 -0.0355,0.0355 0,0.0391 0,0.0355 0,0.0355 0,0.0355 c 0,0.24859 0.14205,0.51138 0.53269,0.51138 0.39065,0 0.8168,-0.29831 0.8168,-0.98726 0,-0.79904 -0.74577,-1.5235 -2.09526,-1.5235 -2.34385,0 -2.98308,1.80406 -2.98308,2.58179 0,1.38145 1.31397,1.6478 1.81115,1.75434 0.92334,0.17401 1.84668,0.36933 1.84668,1.34238 0,0.46167 -0.42616,1.94611 -2.52142,1.94611 -0.24859,0 -1.63359,0 -2.02424,-0.93754 0.67475,0.0888 1.1009,-0.44036 1.1009,-0.93754 0,-0.40485 -0.2841,-0.61793 -0.63923,-0.61793 -0.46167,0 -0.99436,0.36934 -0.99436,1.16483 0,1.00856 0.99436,1.71882 2.52142,1.71882 2.87654,0 3.55129,-2.14143 3.55129,-2.93691 0,-0.63924 -0.31962,-1.0796 -0.5327,-1.29267 -0.49718,-0.49363 -0.99436,-0.58241 -1.77564,-0.74222 -0.63923,-0.14205 -1.34949,-0.26635 -1.34949,-1.06184 0,-0.51138 0.42615,-1.59097 1.98872,-1.59097 0.42616,0 1.31398,0.12429 1.59808,0.81324 z"
       style="font-style:normal;font-variant:normal;font-weight:normal;font-stretch:normal;letter-spacing:normal;word-spacing:normal;text-anchor:start;display:inline;fill:#008000;fill-opacity:1;fill-rule:evenodd;stroke:#008000;stroke-width:0.34560451;stroke-linecap:butt;stroke-linejoin:miter;stroke-miterlimit:4;stroke-dasharray:none;stroke-dashoffset:0;stroke-opacity:1"
       inkscape:connector-curvature="0" />
    <g
       id="g28859"
       style="display:inline;stroke-width:0.30000001;stroke-miterlimit:4;stroke-dasharray:none"
       transform="matrix(1.1520151,0,0,1.1520151,-239.20477,303.81953)">
      <g
         word-spacing="normal"
         letter-spacing="normal"
         font-size-adjust="none"
         font-stretch="normal"
         font-weight="normal"
         font-variant="normal"
         font-style="normal"
         stroke-miterlimit="10.433"
         xml:space="preserve"
         transform="matrix(0.30826771,0,0,-0.30826771,-53.94685,283.6246)"
         id="content"
         style="font-style:normal;font-variant:normal;font-weight:normal;font-stretch:normal;letter-spacing:normal;word-spacing:normal;text-anchor:start;fill:none;fill-opacity:1;fill-rule:evenodd;stroke:#000000;stroke-width:0.97318006;stroke-linecap:butt;stroke-linejoin:miter;stroke-miterlimit:4;stroke-dasharray:none;stroke-dashoffset:0;stroke-opacity:1"><path
           id="path28862"
           d="m 1211.3,365.93 4.3,0 c 1,0 1.5,0 1.5,0.99 0,0.55 -0.5,0.55 -1.4,0.55 l -4.1,0 1,5.68 c 0.2,1.05 0.9,4.58 1.2,5.18 0.5,0.94 1.3,1.69 2.4,1.69 0.2,0 1.5,0 2.4,-0.9 -2.2,-0.19 -2.7,-1.94 -2.7,-2.68 0,-1.15 0.9,-1.75 1.9,-1.75 1.3,0 2.7,1.1 2.7,2.99 0,2.29 -2.3,3.44 -4.3,3.44 -1.7,0 -4.9,-0.9 -6.4,-5.83 -0.3,-1.05 -0.4,-1.54 -1.6,-7.82 l -3.4,0 c -1,0 -1.5,0 -1.5,-0.95 0,-0.59 0.4,-0.59 1.4,-0.59 l 3.2,0 -3.7,-19.68 c -0.9,-4.83 -1.7,-9.37 -4.3,-9.37 -0.2,0 -1.5,0 -2.4,0.9 2.3,0.15 2.7,1.94 2.7,2.69 0,1.15 -0.9,1.74 -1.8,1.74 -1.3,0 -2.8,-1.09 -2.8,-2.98 0,-2.25 2.2,-3.44 4.3,-3.44 2.7,0 4.7,2.94 5.6,4.83 1.6,3.14 2.7,9.17 2.8,9.51 z"
           style="fill:#000000;stroke-width:0.97318006;stroke-miterlimit:4;stroke-dasharray:none"
           inkscape:connector-curvature="0" /><path
           id="path28864"
           d="m 1238.5,334.04 0,0.03 0,0.03 0,0.01 0,0.02 0,0.01 0,0.02 0,0.02 0,0.01 0,0.02 -0.1,0.02 0,0.03 0,0.02 0,0.02 0,0.03 0,0.03 -0.1,0.03 0,0.03 0,0.04 0,0.02 -0.1,0.02 0,0.02 0,0.02 0,0.02 0,0.03 0,0.02 -0.1,0.02 0,0.03 0,0.02 0,0.03 -0.1,0.03 0,0.03 0,0.03 0,0.03 -0.1,0.03 0,0.03 0,0.03 -0.1,0.04 0,0.03 0,0.04 -0.1,0.03 0,0.04 -0.1,0.04 c -6.2,6.28 -7.8,15.69 -7.8,23.31 0,8.67 1.9,17.34 8,23.57 0.7,0.59 0.7,0.69 0.7,0.84 0,0.35 -0.2,0.5 -0.5,0.5 -0.5,0 -5,-3.39 -7.9,-9.72 -2.6,-5.47 -3.2,-11 -3.2,-15.19 0,-3.88 0.6,-9.91 3.3,-15.54 3,-6.12 7.3,-9.36 7.8,-9.36 0.3,0 0.5,0.15 0.5,0.49 z"
           style="fill:#000000;stroke-width:0.97318006;stroke-miterlimit:4;stroke-dasharray:none"
           inkscape:connector-curvature="0" /><path
           id="path28866"
           d="m 1260.6,364.83 -0.1,0.17 -0.1,0.17 -0.1,0.16 -0.1,0.16 -0.1,0.16 -0.1,0.16 -0.1,0.15 -0.1,0.14 -0.1,0.15 -0.1,0.13 -0.2,0.14 -0.1,0.13 -0.1,0.12 -0.1,0.12 -0.2,0.11 -0.1,0.11 -0.2,0.11 -0.1,0.09 -0.1,0.1 -0.2,0.08 -0.2,0.08 -0.1,0.08 -0.2,0.07 -0.2,0.06 -0.1,0.05 -0.2,0.05 -0.2,0.04 -0.2,0.03 -0.2,0.03 -0.2,0.02 -0.2,0.01 -0.2,0.01 0.1,-1.1 c 3.2,0 3.9,-4.08 3.9,-4.38 0,-0.3 -0.1,-0.6 -0.2,-0.85 l -2.5,-9.76 c -0.2,-0.9 -0.2,-1 -1,-1.84 -2.1,-2.75 -4.2,-3.54 -5.6,-3.54 -2.5,0 -3.2,2.74 -3.2,4.68 0,2.49 1.6,8.62 2.8,10.91 1.5,2.94 3.8,4.78 5.8,4.78 l -0.1,1.1 c -5.8,0 -12,-7.32 -12,-14.6 0,-4.68 2.7,-7.97 6.6,-7.97 1,0 3.5,0.2 6.5,3.74 0.4,-2.09 2.1,-3.74 4.5,-3.74 1.8,0 2.9,1.15 3.7,2.74 0.9,1.79 1.5,4.83 1.5,4.93 0,0.5 -0.4,0.5 -0.6,0.5 -0.5,0 -0.5,-0.2 -0.7,-0.89 -0.8,-3.24 -1.7,-6.18 -3.8,-6.18 -1.3,0 -1.5,1.29 -1.5,2.29 0,1.09 0.1,1.49 0.7,3.69 0.5,2.09 0.6,2.59 1.1,4.48 l 1.8,6.97 c 0.3,1.4 0.3,1.5 0.3,1.7 0,0.84 -0.6,1.34 -1.4,1.34 -1.2,0 -2,-1.09 -2.1,-2.19 z"
           style="fill:#000000;stroke-width:0.97318006;stroke-miterlimit:4;stroke-dasharray:none"
           inkscape:connector-curvature="0" /><path
           id="path28868"
           d="m 1282.4,358.45 0,0.37 0,0.39 0,0.39 0,0.41 -0.1,0.84 0,0.88 -0.1,0.92 -0.1,0.94 -0.2,0.98 -0.1,1 -0.2,1.02 -0.2,1.04 -0.3,1.05 -0.3,1.06 -0.4,1.06 -0.4,1.07 -0.2,0.53 -0.2,0.54 -0.2,0.53 -0.3,0.53 c -3,6.12 -7.3,9.36 -7.8,9.36 -0.3,0 -0.5,-0.2 -0.5,-0.5 0,-0.15 0,-0.25 1,-1.15 4.9,-4.92 7.7,-12.85 7.7,-23.26 0,-8.52 -1.8,-17.28 -8,-23.56 -0.7,-0.6 -0.7,-0.69 -0.7,-0.85 0,-0.29 0.2,-0.49 0.5,-0.49 0.5,0 5,3.38 8,9.71 2.5,5.48 3.1,11.01 3.1,15.19 z"
           style="fill:#000000;stroke-width:0.97318006;stroke-miterlimit:4;stroke-dasharray:none"
           inkscape:connector-curvature="0" /></g>    </g>
    <g
       id="g28940"
       style="display:inline;stroke-width:0.30000001;stroke-miterlimit:4;stroke-dasharray:none"
       transform="matrix(1.1520151,0,0,1.1520151,59.407608,193.17341)">
      <g
         id="g28942"
         transform="matrix(0.30826771,0,0,-0.30826771,-53.94685,283.6246)"
         xml:space="preserve"
         stroke-miterlimit="10.433"
         font-style="normal"
         font-variant="normal"
         font-weight="normal"
         font-stretch="normal"
         font-size-adjust="none"
         letter-spacing="normal"
         word-spacing="normal"
         style="font-style:normal;font-variant:normal;font-weight:normal;font-stretch:normal;letter-spacing:normal;word-spacing:normal;text-anchor:start;fill:none;fill-opacity:1;fill-rule:evenodd;stroke:#000000;stroke-width:0.97318006;stroke-linecap:butt;stroke-linejoin:miter;stroke-miterlimit:4;stroke-dasharray:none;stroke-dashoffset:0;stroke-opacity:1"><path
           d="m 1213.3,365.93 4.3,0 c 1,0 1.5,0 1.5,0.99 0,0.55 -0.5,0.55 -1.4,0.55 l -4.1,0 1,5.68 c 0.2,1.05 0.9,4.58 1.2,5.18 0.5,0.94 1.3,1.69 2.4,1.69 0.2,0 1.5,0 2.4,-0.9 -2.2,-0.19 -2.7,-1.94 -2.7,-2.68 0,-1.15 0.9,-1.75 1.9,-1.75 1.3,0 2.7,1.1 2.7,2.99 0,2.29 -2.3,3.44 -4.3,3.44 -1.7,0 -4.9,-0.9 -6.4,-5.83 -0.3,-1.05 -0.4,-1.54 -1.6,-7.82 l -3.4,0 c -1,0 -1.5,0 -1.5,-0.95 0,-0.59 0.4,-0.59 1.4,-0.59 l 3.2,0 -3.7,-19.68 c -0.9,-4.83 -1.7,-9.37 -4.3,-9.37 -0.2,0 -1.5,0 -2.4,0.9 2.3,0.15 2.7,1.94 2.7,2.69 0,1.15 -0.9,1.74 -1.8,1.74 -1.3,0 -2.8,-1.09 -2.8,-2.98 0,-2.25 2.2,-3.44 4.3,-3.44 2.7,0 4.7,2.94 5.6,4.83 1.6,3.14 2.7,9.17 2.8,9.51 z"
           id="path28944"
           style="fill:#000000;stroke-width:0.97318006;stroke-miterlimit:4;stroke-dasharray:none"
           inkscape:connector-curvature="0" /><path
           d="m 1241.5,334.04 0,0.03 0,0.03 0,0.01 0,0.02 0,0.01 0,0.02 0,0.02 0,0.01 0,0.02 -0.1,0.02 0,0.03 0,0.02 0,0.02 0,0.03 0,0.03 -0.1,0.03 0,0.03 0,0.04 0,0.02 -0.1,0.02 0,0.02 0,0.02 0,0.02 0,0.03 0,0.02 -0.1,0.02 0,0.03 0,0.02 0,0.03 -0.1,0.03 0,0.03 0,0.03 0,0.03 -0.1,0.03 0,0.03 0,0.03 -0.1,0.04 0,0.03 0,0.04 -0.1,0.03 0,0.04 -0.1,0.04 c -6.2,6.28 -7.8,15.69 -7.8,23.31 0,8.67 1.9,17.34 8,23.57 0.7,0.59 0.7,0.69 0.7,0.84 0,0.35 -0.2,0.5 -0.5,0.5 -0.5,0 -5,-3.39 -7.9,-9.72 -2.6,-5.47 -3.2,-11 -3.2,-15.19 0,-3.88 0.6,-9.91 3.3,-15.54 3,-6.12 7.3,-9.36 7.8,-9.36 0.3,0 0.5,0.15 0.5,0.49 z"
           id="path28946"
           style="fill:#000000;stroke-width:0.97318006;stroke-miterlimit:4;stroke-dasharray:none"
           inkscape:connector-curvature="0" /><path
           d="m 1255.9,380.02 0,0.01 0,0 0,0.01 0,0.01 0,0.01 0,0.01 0,0.02 0,0.02 0,0.02 0,0.02 0,0.02 0,0.02 0,0.03 0,0.02 0,0.03 -0.1,0.02 0,0.02 0,0.03 0,0.02 0,0.03 0,0.02 -0.1,0.01 0,0.01 0,0.01 0,0.01 0,0.01 0,0.01 0,0.01 -0.1,0.01 0,0.01 0,0.01 0,0.01 0,0 -0.1,0.01 0,0.01 0,0 0,0.01 0,0 -0.1,0.01 0,0 0,0 -0.1,0.01 0,0 0,0 0,0 c -1.2,0 -4.8,-0.4 -6.1,-0.5 -0.4,-0.05 -1,-0.1 -1,-1 0,-0.59 0.5,-0.59 1.2,-0.59 2.4,0 2.5,-0.35 2.5,-0.85 0,-0.35 -0.4,-2.04 -0.7,-3.09 l -4.1,-16.24 c -0.6,-2.49 -0.8,-3.28 -0.8,-5.03 0,-4.73 2.7,-7.82 6.4,-7.82 l 0,1.1 c -1.7,0 -3.4,1.34 -3.4,5.03 0,0.95 0,1.89 0.8,5.03 l 1.1,4.58 c 0.3,1.1 0.3,1.2 0.8,1.75 2.4,3.24 4.7,3.98 5.9,3.98 1.8,0 3.2,-1.49 3.2,-4.68 0,-2.94 -1.7,-8.67 -2.5,-10.56 -1.7,-3.34 -4,-5.13 -5.9,-5.13 l 0,-1.1 c 5.9,0 12,7.43 12,14.6 0,4.53 -2.7,7.97 -6.6,7.97 -2.3,0 -4.4,-1.45 -5.9,-2.99 z"
           id="path28948"
           style="fill:#000000;stroke-width:0.97318006;stroke-miterlimit:4;stroke-dasharray:none"
           inkscape:connector-curvature="0" /><path
           d="m 1280.4,358.45 0,0.37 0,0.39 0,0.39 0,0.41 -0.1,0.84 0,0.88 -0.1,0.92 -0.1,0.94 -0.2,0.98 -0.1,1 -0.2,1.02 -0.2,1.04 -0.3,1.05 -0.3,1.06 -0.4,1.06 -0.4,1.07 -0.2,0.53 -0.2,0.54 -0.2,0.53 -0.3,0.53 c -3,6.12 -7.3,9.36 -7.8,9.36 -0.3,0 -0.5,-0.2 -0.5,-0.5 0,-0.15 0,-0.25 1,-1.15 4.9,-4.92 7.7,-12.85 7.7,-23.26 0,-8.52 -1.8,-17.28 -8,-23.56 -0.7,-0.6 -0.7,-0.69 -0.7,-0.85 0,-0.29 0.2,-0.49 0.5,-0.49 0.5,0 5,3.38 8,9.71 2.5,5.48 3.1,11.01 3.1,15.19 z"
           id="path28950"
           style="fill:#000000;stroke-width:0.97318006;stroke-miterlimit:4;stroke-dasharray:none"
           inkscape:connector-curvature="0" /></g>    </g>
  </g>
  <g
     transform="translate(0,35.566728)"
     style="display:inline"
     inkscape:label="Function and Stuff"
     id="layer2"
     inkscape:groupmode="layer">
    <path
       inkscape:connector-curvature="0"
       id="path3393"
       d="M 140.21125,118.11322 102.14701,98.06585"
       style="fill:none;stroke:#000080;stroke-width:1;stroke-linecap:butt;stroke-linejoin:miter;stroke-miterlimit:4;stroke-dasharray:none;stroke-opacity:1;marker-end:url(#Arrow1Mend)" />
    <path
       inkscape:connector-curvature="0"
       id="path3395"
       d="m 205.96866,118.11322 30.1028,-20.04737"
       style="fill:none;stroke:#000080;stroke-width:1;stroke-linecap:butt;stroke-linejoin:miter;stroke-miterlimit:4;stroke-dasharray:none;stroke-opacity:1;marker-end:url(#Arrow1Mend)" />
    <path
       sodipodi:nodetypes="cc"
       inkscape:connector-curvature="0"
       id="path3397"
       d="M 315.67436,492.79557 425.36863,462.96402"
       style="fill:none;stroke:#000080;stroke-width:1;stroke-linecap:butt;stroke-linejoin:miter;stroke-miterlimit:4;stroke-dasharray:none;stroke-opacity:1;marker-end:url(#Arrow1Mend)"
       transform="translate(-103.44151,-365.9829)" />
    <path
       sodipodi:nodetypes="csc"
       inkscape:connector-curvature="0"
       id="path3336"
       d="m 123.52389,526.02879 c 74.84566,-7.45143 92.52213,-138.56077 152.68577,-171.97662 70.03626,-38.89925 71.93178,348.87929 185.19294,33.45514"
       style="fill:none;stroke:#000000;stroke-width:1px;stroke-linecap:butt;stroke-linejoin:miter;stroke-opacity:1"
       transform="translate(-103.44151,-365.9829)" />
    <circle
       r="2.5"
       cy="459.97345"
       cx="210.76118"
       id="path3346-1"
       style="fill:#000080;fill-opacity:1;stroke:none"
       transform="translate(-114.51639,-366.08527)" />
    <circle
       r="2.5"
       cy="459.97345"
       cx="431.51831"
       id="path3346-04"
       style="fill:#000080;fill-opacity:1;stroke:none"
       transform="translate(-103.44151,-365.9829)" />
    <circle
       r="2.5"
       cy="459.97345"
       cx="313.23569"
       id="path3346-6"
       style="fill:#000080;fill-opacity:1;stroke:none"
       transform="translate(-69.895977,-365.9829)" />
    <g
       id="g29034"
       style="fill:#000080;fill-opacity:1;stroke:#000080;stroke-width:0.30000001;stroke-miterlimit:4;stroke-dasharray:none;stroke-opacity:1"
       transform="matrix(1.1520151,0,0,1.1520151,-204.81512,-69.102823)">
      <g
         word-spacing="normal"
         letter-spacing="normal"
         font-size-adjust="none"
         font-stretch="normal"
         font-weight="normal"
         font-variant="normal"
         font-style="normal"
         stroke-miterlimit="10.433"
         xml:space="preserve"
         transform="matrix(0.30826771,0,0,-0.30826771,-53.94685,283.6246)"
         id="g29036"
         style="font-style:normal;font-variant:normal;font-weight:normal;font-stretch:normal;letter-spacing:normal;word-spacing:normal;text-anchor:start;fill:#000080;fill-opacity:1;fill-rule:evenodd;stroke:#000080;stroke-width:0.97318006;stroke-linecap:butt;stroke-linejoin:miter;stroke-miterlimit:4;stroke-dasharray:none;stroke-dashoffset:0;stroke-opacity:1"><path
           id="path29038"
           d="m 1165.3,365.93 4.3,0 c 1,0 1.5,0 1.5,0.99 0,0.55 -0.5,0.55 -1.4,0.55 l -4.1,0 1,5.68 c 0.2,1.05 0.9,4.58 1.2,5.18 0.5,0.94 1.3,1.69 2.4,1.69 0.2,0 1.5,0 2.4,-0.9 -2.2,-0.19 -2.7,-1.94 -2.7,-2.68 0,-1.15 0.9,-1.75 1.9,-1.75 1.3,0 2.7,1.1 2.7,2.99 0,2.29 -2.3,3.44 -4.3,3.44 -1.7,0 -4.9,-0.9 -6.4,-5.83 -0.3,-1.05 -0.4,-1.54 -1.6,-7.82 l -3.4,0 c -1,0 -1.5,0 -1.5,-0.95 0,-0.59 0.4,-0.59 1.4,-0.59 l 3.2,0 -3.7,-19.68 c -0.9,-4.83 -1.7,-9.37 -4.3,-9.37 -0.2,0 -1.5,0 -2.4,0.9 2.3,0.15 2.7,1.94 2.7,2.69 0,1.15 -0.9,1.74 -1.8,1.74 -1.3,0 -2.8,-1.09 -2.8,-2.98 0,-2.25 2.2,-3.44 4.3,-3.44 2.7,0 4.7,2.94 5.6,4.83 1.6,3.14 2.7,9.17 2.8,9.51 z"
           style="fill:#000080;fill-opacity:1;stroke:#000080;stroke-width:0.97318006;stroke-miterlimit:4;stroke-dasharray:none;stroke-opacity:1"
           inkscape:connector-curvature="0" /><path
           id="path29040"
           d="m 1192.5,334.04 0,0.03 0,0.03 0,0.01 0,0.02 0,0.01 0,0.02 0,0.02 0,0.01 0,0.02 -0.1,0.02 0,0.03 0,0.02 0,0.02 0,0.03 0,0.03 -0.1,0.03 0,0.03 0,0.04 0,0.02 -0.1,0.02 0,0.02 0,0.02 0,0.02 0,0.03 0,0.02 -0.1,0.02 0,0.03 0,0.02 0,0.03 -0.1,0.03 0,0.03 0,0.03 0,0.03 -0.1,0.03 0,0.03 0,0.03 -0.1,0.04 0,0.03 0,0.04 -0.1,0.03 0,0.04 -0.1,0.04 c -6.2,6.28 -7.8,15.69 -7.8,23.31 0,8.67 1.9,17.34 8,23.57 0.7,0.59 0.7,0.69 0.7,0.84 0,0.35 -0.2,0.5 -0.5,0.5 -0.5,0 -5,-3.39 -7.9,-9.72 -2.6,-5.47 -3.2,-11 -3.2,-15.19 0,-3.88 0.6,-9.91 3.3,-15.54 3,-6.12 7.3,-9.36 7.8,-9.36 0.3,0 0.5,0.15 0.5,0.49 z"
           style="fill:#000080;fill-opacity:1;stroke:#000080;stroke-width:0.97318006;stroke-miterlimit:4;stroke-dasharray:none;stroke-opacity:1"
           inkscape:connector-curvature="0" /><path
           id="path29042"
           d="m 1212.6,361.04 0.1,0.13 0,0.15 0,0.17 0.1,0.18 0,0.19 0.1,0.21 0.1,0.21 0,0.23 0.1,0.23 0.1,0.24 0.1,0.25 0.1,0.24 0.1,0.25 0.1,0.25 0.2,0.25 0.1,0.25 0.2,0.24 0.1,0.24 0.2,0.23 0.2,0.22 0.1,0.22 0.2,0.2 0.2,0.19 0.3,0.18 0.2,0.16 0.2,0.14 0.2,0.07 0.1,0.06 0.1,0.05 0.2,0.05 0.1,0.05 0.1,0.04 0.2,0.03 0.1,0.03 0.2,0.02 0.1,0.02 0.2,0.01 0.2,0 c 0.2,0 1.4,0 2.5,-0.65 -1.4,-0.25 -2.4,-1.49 -2.4,-2.68 0,-0.8 0.5,-1.75 1.9,-1.75 1.1,0 2.6,0.9 2.6,2.89 0,2.59 -2.9,3.29 -4.6,3.29 -2.9,0 -4.6,-2.64 -5.2,-3.79 -1.3,3.29 -4,3.79 -5.4,3.79 -5.2,0 -8,-6.43 -8,-7.67 0,-0.5 0.5,-0.5 0.6,-0.5 0.4,0 0.5,0.1 0.6,0.54 1.7,5.29 5,6.53 6.7,6.53 1,0 2.7,-0.45 2.7,-3.33 0,-1.55 -0.8,-4.89 -2.7,-11.86 -0.8,-3.09 -2.5,-5.18 -4.7,-5.18 -0.3,0 -1.5,0 -2.5,0.65 1.2,0.25 2.3,1.29 2.3,2.69 0,1.34 -1.1,1.74 -1.8,1.74 -1.5,0 -2.8,-1.3 -2.8,-2.89 0,-2.29 2.5,-3.29 4.7,-3.29 3.3,0 5.1,3.49 5.3,3.79 0.6,-1.85 2.4,-3.79 5.3,-3.79 5.2,0 8,6.43 8,7.67 0,0.5 -0.4,0.5 -0.6,0.5 -0.4,0 -0.5,-0.2 -0.6,-0.55 -1.7,-5.33 -5.1,-6.52 -6.7,-6.52 -1.9,0 -2.7,1.59 -2.7,3.29 0,1.09 0.3,2.19 0.8,4.38 z"
           style="fill:#000080;fill-opacity:1;stroke:#000080;stroke-width:0.97318006;stroke-miterlimit:4;stroke-dasharray:none;stroke-opacity:1"
           inkscape:connector-curvature="0" /><path
           id="path29044"
           d="m 1238.4,358.45 0,0.37 0,0.39 0,0.39 0,0.41 -0.1,0.84 0,0.88 -0.1,0.92 -0.1,0.94 -0.2,0.98 -0.1,1 -0.2,1.02 -0.2,1.04 -0.3,1.05 -0.3,1.06 -0.4,1.06 -0.4,1.07 -0.2,0.53 -0.2,0.54 -0.2,0.53 -0.3,0.53 c -3,6.12 -7.3,9.36 -7.8,9.36 -0.3,0 -0.5,-0.2 -0.5,-0.5 0,-0.15 0,-0.25 1,-1.15 4.9,-4.92 7.7,-12.85 7.7,-23.26 0,-8.52 -1.8,-17.28 -8,-23.56 -0.7,-0.6 -0.7,-0.69 -0.7,-0.85 0,-0.29 0.2,-0.49 0.5,-0.49 0.5,0 5,3.38 8,9.71 2.5,5.48 3.1,11.01 3.1,15.19 z"
           style="fill:#000080;fill-opacity:1;stroke:#000080;stroke-width:0.97318006;stroke-miterlimit:4;stroke-dasharray:none;stroke-opacity:1"
           inkscape:connector-curvature="0" /><path
           id="path29046"
           d="m 1292.2,362.29 0.2,0 0.1,0 0.2,0.01 0,0 0.1,0 0.1,0.01 0,0.01 0.1,0.01 0.1,0.01 0.1,0.02 0,0.01 0.1,0.02 0,0.02 0.1,0.03 0.1,0.03 0,0.03 0.1,0.03 0,0.04 0.1,0.04 0,0.05 0.1,0.05 0,0.03 0,0.02 0,0.03 0,0.03 0,0.03 0,0.04 0.1,0.03 0,0.04 0,0.03 0,0.04 0,0.04 0,0.04 0,0.04 0,0.04 0,0.05 0,0.05 c 0,0.99 -0.9,0.99 -1.6,0.99 l -29.9,0 c -0.7,0 -1.6,0 -1.6,-0.99 0,-1 0.9,-1 1.7,-1 z"
           style="fill:#000080;fill-opacity:1;stroke:#000080;stroke-width:0.97318006;stroke-miterlimit:4;stroke-dasharray:none;stroke-opacity:1"
           inkscape:connector-curvature="0" /><path
           id="path29048"
           d="m 1292.3,352.62 0.1,0.01 0.1,0 0.2,0 0.1,0.01 0,0 0.1,0.01 0.1,0.01 0,0.01 0.1,0.01 0.1,0.01 0,0.02 0.1,0.02 0.1,0.02 0,0.02 0.1,0.03 0,0.03 0.1,0.04 0,0.04 0.1,0.04 0,0.04 0,0.03 0.1,0.03 0,0.02 0,0.03 0,0.03 0,0.03 0,0.03 0,0.03 0.1,0.04 0,0.03 0,0.04 0,0.04 0,0.04 0,0.04 0,0.04 0,0.04 0,0.05 0,0.04 c 0,1 -0.9,1 -1.7,1 l -29.7,0 c -0.8,0 -1.7,0 -1.7,-1 0,-1 0.9,-1 1.6,-1 z"
           style="fill:#000080;fill-opacity:1;stroke:#000080;stroke-width:0.97318006;stroke-miterlimit:4;stroke-dasharray:none;stroke-opacity:1"
           inkscape:connector-curvature="0" /><path
           id="path29050"
           d="m 1329.5,364.63 -0.2,-0.01 -0.1,-0.01 -0.1,-0.02 -0.1,-0.03 -0.1,-0.03 -0.2,-0.03 -0.1,-0.04 -0.1,-0.05 -0.1,-0.05 -0.1,-0.05 -0.1,-0.06 -0.1,-0.06 -0.1,-0.07 -0.1,-0.07 -0.1,-0.07 0,-0.08 -0.1,-0.08 -0.1,-0.08 -0.1,-0.09 0,-0.08 -0.1,-0.09 0,-0.1 -0.1,-0.09 0,-0.1 -0.1,-0.09 0,-0.1 0,-0.1 -0.1,-0.1 0,-0.11 0,-0.1 0,-0.1 0,-0.1 c 0,-0.7 0.4,-1.44 1.5,-1.44 1.1,0 2.3,0.84 2.3,2.78 0,2.25 -2.1,4.29 -5.9,4.29 -6.6,0 -8.4,-5.08 -8.4,-7.27 0,-3.89 3.7,-4.64 5.1,-4.94 2.6,-0.49 5.2,-1.04 5.2,-3.78 0,-1.3 -1.2,-5.48 -7.1,-5.48 -0.7,0 -4.6,0 -5.7,2.64 1.9,-0.25 3.1,1.24 3.1,2.64 0,1.14 -0.8,1.74 -1.8,1.74 -1.3,0 -2.8,-1.04 -2.8,-3.28 0,-2.84 2.8,-4.84 7.1,-4.84 8.1,0 10,6.03 10,8.27 0,1.8 -0.9,3.04 -1.5,3.64 -1.4,1.39 -2.8,1.64 -5,2.09 -1.8,0.4 -3.8,0.75 -3.8,2.99 0,1.44 1.2,4.48 5.6,4.48 1.2,0 3.7,-0.35 4.5,-2.29 z"
           style="fill:#000080;fill-opacity:1;stroke:#000080;stroke-width:0.97318006;stroke-miterlimit:4;stroke-dasharray:none;stroke-opacity:1"
           inkscape:connector-curvature="0" /></g>    </g>
  </g>
</svg>
